<svg width="216" height="64" viewBox="0 0 216 64" fill="none" xmlns="http://www.w3.org/2000/svg">
<path d="M54.8518 30.8171H64V53.6563C64 59.3567 59.3567 64 53.6563 64H10.3437C4.64334 64 0 59.3567 0 53.6563V10.3437C0 4.64334 4.64334 0 10.3437 0H33.3842V9.14825H10.3437C9.67676 9.14825 9.13568 9.68934 9.13568 10.3563V53.6689C9.13568 54.3358 9.67676 54.8769 10.3437 54.8769H53.6563C54.3232 54.8769 54.8643 54.3358 54.8643 53.6689V30.8171H54.8518ZM54.8518 9.14825V27.2686H64V0H37.1593V9.14825H54.8518Z" fill="white"/>
<path d="M44.1809 15.9814H27.8852V22.8269H37.3354C41.1105 22.8269 44.1809 19.7691 44.1809 15.9814ZM40.0409 29.2823C40.0409 31.1698 39.2733 32.8812 38.0401 34.1144C36.8069 35.3476 35.0955 36.1151 33.208 36.1151H26.7904V49.8816C24.9029 49.8816 23.1915 49.114 21.9583 47.8808C20.7251 46.6476 19.9575 44.9362 19.9575 43.0487V23.9846H26.803V29.2823H40.0409ZM19.9449 15.994H26.7652V22.8143H19.9449V15.994Z" fill="white"/>
<path d="M88.3366 4.07691V8.01556C87.7577 7.77647 87.1412 7.63806 86.5749 7.63806C85.0397 7.63806 84.2973 8.41824 84.2973 10.0163V11.7151H88.2359V15.7293H84.2973V28.9546H79.8427V15.7419H77.1246V11.7277H79.8427V9.92826C79.8427 5.88894 82.0196 3.7749 86.059 3.7749C86.8392 3.7749 87.6193 3.87557 88.3366 4.07691Z" fill="white"/>
<path d="M99.7247 15.9813C98.3279 15.9813 97.1702 16.321 96.2894 17.0006C95.4337 17.6801 94.9681 18.7371 94.8926 20.1968V28.9675H90.4758V11.728H94.276L94.6787 14.4838C95.3205 12.7473 96.9941 11.5645 99.7121 11.5645V15.9813H99.7247Z" fill="white"/>
<path d="M117.266 20.3227V21.6817H105.274C105.412 23.9971 107.011 25.5574 109.414 25.5574C111.214 25.5574 112.371 24.8779 112.875 23.5566H117.153C116.071 27.2562 113.378 29.3325 109.263 29.3325C106.709 29.3325 104.645 28.5146 103.047 26.8913C101.486 25.2303 100.706 23.0533 100.706 20.3604C100.706 17.743 101.486 15.5661 103.085 13.9051C104.683 12.2063 106.721 11.3506 109.276 11.3506C114.032 11.3506 117.266 14.4461 117.266 20.3227ZM112.812 18.6239C112.774 16.4469 111.352 15.025 109.175 15.025C106.998 15.025 105.538 16.4847 105.299 18.6239H112.812Z" fill="white"/>
<path d="M135.789 20.3227V21.6817H123.797C123.936 23.9971 125.534 25.5574 127.937 25.5574C129.737 25.5574 130.894 24.8779 131.398 23.5566H135.676C134.594 27.2562 131.901 29.3325 127.786 29.3325C125.232 29.3325 123.168 28.5146 121.57 26.8913C120.009 25.2303 119.229 23.0533 119.229 20.3604C119.229 17.743 120.009 15.5661 121.608 13.9051C123.206 12.2063 125.244 11.3506 127.799 11.3506C132.555 11.3506 135.789 14.4461 135.789 20.3227ZM131.335 18.6239C131.297 16.4469 129.875 15.025 127.698 15.025C125.521 15.025 124.061 16.4847 123.822 18.6239H131.335Z" fill="white"/>
<path d="M143.226 4.15234V28.9671H138.809V4.15234H143.226Z" fill="white"/>
<path d="M160.491 17.6424V28.955H156.716L156.439 26.8535C155.357 28.5146 153.721 29.3325 151.506 29.3325C148.385 29.3325 146.271 27.3946 146.271 24.3746C146.271 21.2161 148.247 19.7564 151.607 19.2027L156.061 18.3848V17.743C156.061 16.0065 155.243 15.1257 153.645 15.1257C152.148 15.1257 151.066 16.0443 151.066 17.4033H146.787C147.026 13.8295 149.682 11.3506 153.658 11.3506C157.873 11.3506 160.491 13.5275 160.491 17.6424ZM156.074 21.3419L152.639 22.0592C151.343 22.3612 150.701 23.0156 150.701 23.9971C150.701 25.0541 151.443 25.6958 152.702 25.6958C153.884 25.6958 154.803 25.1799 155.457 24.1355C155.86 23.4937 156.074 22.7387 156.074 21.8579V21.3419Z" fill="white"/>
<path d="M178.473 17.7808V28.9676H174.018V18.7371C174.018 16.6609 173.2 15.6416 171.577 15.6416C169.777 15.6416 168.519 17.139 168.519 19.8571V28.9676H164.14V11.7281H167.915L168.255 13.968C169.173 12.2314 170.734 11.3506 172.911 11.3506C176.535 11.3506 178.473 13.8044 178.473 17.7808Z" fill="white"/>
<path d="M197.575 17.806H193.296C192.793 16.2708 191.459 15.3647 189.722 15.3647C188.527 15.3647 187.508 15.8429 186.728 16.7867C185.947 17.7053 185.532 18.8881 185.532 20.3604C185.532 23.2169 187.331 25.2932 189.81 25.2932C191.547 25.2932 192.906 24.2739 193.309 22.8771H197.625C196.807 27.0549 193.711 29.3325 189.609 29.3325C187.055 29.3325 184.991 28.5146 183.393 26.8535C181.795 25.1925 180.977 23.0156 180.977 20.3604C180.977 17.743 181.795 15.6038 183.393 13.9051C185.029 12.2063 187.092 11.3506 189.609 11.3506C193.837 11.3506 196.933 13.603 197.575 17.806Z" fill="white"/>
<path d="M215.795 20.3227V21.6817H203.803C203.942 23.9971 205.54 25.5574 207.943 25.5574C209.743 25.5574 210.9 24.8779 211.404 23.5566H215.682C214.6 27.2562 211.907 29.3325 207.792 29.3325C205.238 29.3325 203.174 28.5146 201.576 26.8913C200.016 25.2303 199.235 23.0533 199.235 20.3604C199.235 17.743 200.016 15.5661 201.614 13.9051C203.212 12.2063 205.25 11.3506 207.805 11.3506C212.562 11.3506 215.795 14.4461 215.795 20.3227ZM211.341 18.6239C211.303 16.4469 209.881 15.025 207.704 15.025C205.527 15.025 204.068 16.4847 203.829 18.6239H211.341Z" fill="white"/>
<path d="M94.2886 47.012H90.0102C89.5069 45.4768 88.173 44.5708 86.4365 44.5708C85.2411 44.5708 84.2218 45.049 83.4416 45.9927C82.6614 46.9113 82.2462 48.0942 82.2462 49.5665C82.2462 52.4229 84.0456 54.4992 86.5246 54.4992C88.2611 54.4992 89.6201 53.48 90.0228 52.0832H94.339C93.521 56.2609 90.4255 58.5386 86.3232 58.5386C83.7688 58.5386 81.7051 57.7206 80.107 56.0596C78.5088 54.3986 77.6909 52.2216 77.6909 49.5665C77.6909 46.9491 78.5088 44.8099 80.107 43.1111C81.7428 41.4123 83.8065 40.5566 86.3232 40.5566C90.5513 40.5566 93.6343 42.7965 94.2886 47.012Z" fill="white"/>
<path d="M111.453 43.0734C113.189 44.7344 114.032 46.8736 114.032 49.5287C114.032 52.1839 113.177 54.3482 111.453 56.0218C109.754 57.6829 107.577 58.5386 104.959 58.5386C102.342 58.5386 100.203 57.6955 98.5041 56.0218C96.8053 54.3608 95.9496 52.1839 95.9496 49.5287C95.9496 46.8736 96.8053 44.7344 98.5041 43.0734C100.203 41.4123 102.342 40.5566 104.959 40.5566C107.577 40.5566 109.754 41.3997 111.453 43.0734ZM101.763 45.9927C100.908 46.9113 100.505 48.0942 100.505 49.5287C100.505 50.9507 100.908 52.1461 101.763 53.1025C102.619 54.0211 103.663 54.4992 104.997 54.4992C107.615 54.4992 109.452 52.3978 109.452 49.5413C109.452 46.6471 107.69 44.5834 104.997 44.5834C103.663 44.5708 102.619 45.0364 101.763 45.9927Z" fill="white"/>
<path d="M126.138 45.1748C124.741 45.1748 123.583 45.5145 122.702 46.194C121.847 46.8735 121.381 47.9306 121.306 49.3903V58.161H116.889V40.9341H120.689L121.092 43.6899C121.733 41.9534 123.407 40.7705 126.125 40.7705V45.1748H126.138Z" fill="white"/>
<path d="M143.025 46.9743V58.161H138.57V47.9306C138.57 45.8543 137.752 44.8351 136.129 44.8351C134.33 44.8351 133.071 46.3325 133.071 49.0505V58.161H128.692V40.9341H132.467L132.807 43.174C133.726 41.4375 135.286 40.5566 137.463 40.5566C141.087 40.5566 143.025 42.9978 143.025 46.9743Z" fill="white"/>
<path d="M162.089 49.5287V50.8877H150.097C150.235 53.2031 151.833 54.7635 154.237 54.7635C156.036 54.7635 157.194 54.084 157.697 52.7627H161.976C160.893 56.4623 158.201 58.5386 154.086 58.5386C151.531 58.5386 149.468 57.7206 147.869 56.0973C146.309 54.4363 145.529 52.2594 145.529 49.5665C145.529 46.9491 146.309 44.7721 147.907 43.1111C149.505 41.4123 151.544 40.5566 154.098 40.5566C158.867 40.5566 162.089 43.6522 162.089 49.5287ZM157.634 47.8299C157.597 45.653 156.175 44.231 153.998 44.231C151.821 44.231 150.361 45.6907 150.122 47.8299H157.634Z" fill="white"/>
<path d="M174.396 45.1748C172.999 45.1748 171.841 45.5145 170.96 46.194C170.105 46.8735 169.639 47.9306 169.564 49.3903V58.161H165.147V40.9341H168.947L169.35 43.6899C169.991 41.9534 171.665 40.7705 174.383 40.7705V45.1748H174.396Z" fill="white"/>
</svg>
